<svg xmlns="http://www.w3.org/2000/svg" width="240" height="240" viewBox="0 0 240 240" role="img" aria-label="GS logo">
<defs>
<linearGradient id="g1" x1="0" x2="1" y1="0" y2="1">
<stop offset="0%" stop-color="#00C4FF" />
<stop offset="100%" stop-color="#6FE3B4" />
</linearGradient>
<filter id="f1" x="-20%" y="-20%" width="140%" height="140%">
<feDropShadow dx="0" dy="6" stdDeviation="10" flood-color="#0b3740" flood-opacity="0.12" />
</filter>
</defs>


<rect width="240" height="240" rx="32" fill="#0f1720" />


<!-- soft glowing circle -->
<circle cx="120" cy="80" r="48" fill="url(#g1)" opacity="0.14" />


<!-- leaf + circuit motif -->
<g transform="translate(48,48)" filter="url(#f1)">
<path d="M72 8c-18 0-40 12-48 28-8 16 0 36 18 44 18 8 46 6 64-4 18-10 24-32 16-48-8-16-30-20-50-20z" fill="#062F2F" stroke="url(#g1)" stroke-width="3" />
<path d="M80 36c-6 6-16 8-24 6" stroke="#9FF3E0" stroke-width="2" stroke-linecap="round" fill="none" opacity="0.9" />
<circle cx="86" cy="30" r="3" fill="#00C4FF" />
</g>


<!-- Initials -->
<g transform="translate(36,118)">
<text x="0" y="0" font-family="Inter, Arial, sans-serif" font-weight="700" font-size="68" fill="#E6EEF0">G</text>
<text x="86" y="0" font-family="Inter, Arial, sans-serif" font-weight="700" font-size="68" fill="url(#g1)">S</text>
</g>


<!-- small tagline -->
<text x="120" y="210" text-anchor="middle" font-family="Inter, Arial, sans-serif" font-size="12" fill="#9FB7BD">ai · web3 · systems</text>


</svg>
